<?xml version="1.0" standalone="no"?>
<!DOCTYPE svg PUBLIC "-//W3C//DTD SVG 20010904//EN"
 "http://www.w3.org/TR/2001/REC-SVG-20010904/DTD/svg10.dtd">
<svg version="1.0" xmlns="http://www.w3.org/2000/svg"
 width="162.000000pt" height="162.000000pt" viewBox="0 0 162.000000 162.000000"
 preserveAspectRatio="xMidYMid meet">
<metadata>
Created by potrace 1.13, written by Peter Selinger 2001-2015
</metadata>
<g transform="translate(0.000000,162.000000) scale(0.100000,-0.100000)"
fill="#000000" stroke="none">
<path d="M660 1596 c-207 -48 -367 -147 -483 -299 -113 -147 -167 -306 -167
-492 0 -208 71 -390 207 -536 120 -127 232 -196 389 -241 112 -31 296 -31 408
0 232 66 412 212 515 419 57 115 81 220 81 357 -1 66 -7 146 -14 176 -31 126
-91 247 -173 347 -89 109 -266 220 -413 258 -84 22 -277 28 -350 11z m265 -50
c255 -45 454 -194 561 -419 118 -251 92 -534 -70 -762 -139 -193 -359 -305
-601 -305 -138 1 -229 22 -340 78 -301 151 -468 491 -400 812 65 307 301 538
610 595 94 17 145 18 240 1z"/>
<path d="M756 1188 c-24 -34 -20 -73 10 -97 15 -12 34 -21 44 -21 30 0 70 39
70 69 0 45 -26 71 -70 71 -29 0 -43 -6 -54 -22z"/>
<path d="M740 690 l0 -280 70 0 70 0 0 280 0 280 -70 0 -70 0 0 -280z"/>
</g>
</svg>
