<?xml version="1.0" standalone="no"?>
<!DOCTYPE svg PUBLIC "-//W3C//DTD SVG 20010904//EN"
 "http://www.w3.org/TR/2001/REC-SVG-20010904/DTD/svg10.dtd">
<svg version="1.0" xmlns="http://www.w3.org/2000/svg"
 width="1200.000000pt" height="480.000000pt" viewBox="0 0 1200.000000 480.000000"
 preserveAspectRatio="xMidYMid meet">
<metadata>
Created by potrace 1.13, written by Peter Selinger 2001-2015
</metadata>
<g transform="translate(0.000000,480.000000) scale(0.100000,-0.100000)"
fill="#000000" stroke="none">
<path d="M90 4772 c0 -5 339 -1057 753 -2338 l754 -2329 85 -3 c73 -2 87 0 92
14 18 48 1650 4631 1654 4647 4 15 -5 17 -79 17 l-84 0 -334 -952 c-184 -524
-393 -1117 -464 -1318 -290 -820 -492 -1397 -627 -1793 -79 -229 -146 -417
-150 -417 -3 0 -46 125 -95 278 -48 152 -215 675 -371 1162 -156 487 -438
1370 -626 1962 l-343 1078 -82 0 c-46 0 -83 -4 -83 -8z"/>
<path d="M9214 4559 c-41 -12 -91 -69 -99 -113 -9 -48 10 -99 50 -135 63 -55
152 -51 210 9 27 29 30 38 30 100 0 62 -3 71 -29 99 -28 29 -81 52 -116 50 -8
0 -29 -5 -46 -10z"/>
<path d="M4858 3519 c-230 -19 -461 -100 -658 -232 -107 -71 -302 -271 -379
-387 -209 -316 -311 -693 -311 -1145 0 -522 141 -951 420 -1280 305 -359 796
-521 1287 -426 119 23 286 77 375 122 414 207 716 650 807 1188 75 443 31 919
-118 1286 -177 433 -522 736 -955 841 -86 20 -306 47 -356 42 -8 0 -59 -4
-112 -9z m348 -134 c100 -18 238 -62 316 -101 514 -257 802 -888 750 -1647
-20 -297 -70 -507 -173 -726 -243 -517 -727 -814 -1242 -761 -440 45 -790 295
-1000 716 -131 263 -187 529 -187 894 0 443 89 783 285 1081 189 288 482 485
810 543 110 19 331 20 441 1z"/>
<path d="M8275 3520 c-308 -42 -611 -331 -791 -754 -34 -80 -44 -95 -48 -75
-2 13 -10 188 -16 389 -7 201 -14 368 -17 372 -6 11 -121 10 -127 -1 -3 -5 1
-177 9 -383 11 -281 15 -693 15 -1670 l0 -1298 75 0 75 0 0 999 c0 1080 4
1185 50 1366 109 433 350 758 649 879 71 29 84 31 209 31 l132 0 0 67 c0 62
-2 68 -22 72 -52 11 -137 13 -193 6z"/>
<path d="M11076 3519 c-242 -21 -430 -102 -571 -245 -146 -148 -215 -360 -202
-618 18 -368 201 -569 770 -851 322 -159 446 -242 558 -373 105 -123 149 -262
149 -471 0 -248 -57 -403 -205 -560 -109 -115 -248 -192 -416 -228 -128 -27
-361 -25 -499 6 -136 30 -245 72 -327 127 -36 24 -67 43 -68 42 -2 -2 -15 -27
-29 -56 -26 -52 -26 -54 -9 -68 80 -62 261 -137 413 -170 128 -28 449 -26 577
3 187 44 323 115 445 231 206 197 297 462 268 775 -13 137 -31 204 -85 312
-104 212 -222 305 -694 549 -447 231 -612 373 -676 586 -9 30 -19 107 -22 170
-17 355 156 607 474 691 111 30 354 37 481 15 105 -18 225 -61 295 -106 26
-16 51 -30 55 -30 4 0 17 24 30 52 16 37 19 54 11 64 -20 25 -179 94 -270 119
-82 21 -286 47 -344 44 -11 -1 -60 -5 -109 -10z"/>
<path d="M9190 1780 l0 -1680 75 0 75 0 -2 1678 -3 1677 -72 3 -73 3 0 -1681z"/>
</g>
</svg>
