<?xml version="1.0" standalone="no"?>
<!DOCTYPE svg PUBLIC "-//W3C//DTD SVG 20010904//EN"
 "http://www.w3.org/TR/2001/REC-SVG-20010904/DTD/svg10.dtd">
<svg version="1.0" xmlns="http://www.w3.org/2000/svg"
 width="1800.000000pt" height="1000.000000pt" viewBox="0 0 1800.000000 1000.000000"
 preserveAspectRatio="xMidYMid meet">
<metadata>
Created by potrace 1.13, written by Peter Selinger 2001-2015
</metadata>
<g transform="translate(0.000000,1000.000000) scale(0.100000,-0.100000)"
fill="#000000" stroke="none">
<path d="M1906 7803 c8 -27 416 -1290 907 -2808 l893 -2760 101 -3 101 -3 15
43 c8 24 439 1233 957 2688 518 1455 962 2700 986 2768 l43 122 -102 0 -102 0
-512 -1458 c-281 -801 -581 -1653 -666 -1892 -193 -542 -466 -1329 -600 -1727
-56 -167 -106 -302 -111 -300 -5 2 -71 201 -148 442 -77 242 -283 885 -457
1430 -175 545 -497 1556 -717 2247 l-399 1258 -102 0 -102 0 15 -47z"/>
<path d="M12865 7591 c-44 -11 -69 -26 -103 -65 -80 -92 -30 -242 93 -276 120
-34 227 47 227 170 -1 82 -52 148 -130 170 -41 11 -44 11 -87 1z"/>
<path d="M7623 6340 c-876 -77 -1501 -774 -1609 -1798 -19 -179 -14 -582 10
-737 60 -401 208 -770 413 -1038 383 -499 1002 -720 1641 -587 539 113 936
430 1193 955 111 228 176 447 215 735 22 159 25 604 6 760 -94 746 -427 1272
-981 1550 -248 124 -593 186 -888 160z m429 -164 c508 -92 916 -460 1123
-1011 91 -242 135 -492 142 -806 10 -408 -38 -728 -152 -1016 -223 -562 -617
-917 -1145 -1030 -118 -25 -427 -25 -552 0 -653 131 -1113 670 -1250 1462 -25
150 -36 561 -19 737 70 716 384 1255 884 1519 158 83 302 129 477 155 119 17
372 12 492 -10z"/>
<path d="M11715 6339 c-205 -31 -405 -146 -586 -337 -164 -173 -272 -351 -393
-646 -9 -22 -18 -37 -21 -34 -4 4 -35 769 -35 881 l0 57 -83 0 -84 0 4 -107
c2 -60 9 -202 15 -318 6 -127 12 -883 15 -1908 l4 -1698 87 3 87 3 5 1295 c6
1412 4 1355 65 1578 53 196 164 443 271 602 106 158 278 312 436 389 125 62
189 74 346 69 l132 -5 0 79 c0 72 -2 79 -22 87 -38 14 -179 20 -243 10z"/>
<path d="M15078 6340 c-322 -29 -593 -162 -750 -369 -115 -152 -167 -320 -175
-561 -10 -305 59 -502 241 -686 158 -158 318 -261 716 -460 319 -160 431 -229
549 -339 94 -90 136 -143 185 -243 65 -128 79 -201 79 -412 1 -168 -2 -194
-25 -281 -68 -252 -236 -462 -459 -575 -159 -80 -322 -114 -546 -114 -280 0
-536 69 -729 196 -28 19 -54 34 -57 34 -4 0 -21 -27 -37 -61 -37 -72 -38 -71
68 -134 322 -191 847 -240 1237 -114 172 55 297 131 426 259 206 204 308 463
309 785 1 321 -89 552 -291 753 -123 121 -246 198 -676 420 -525 271 -699 424
-783 687 -34 105 -39 333 -12 468 70 339 317 548 705 597 163 20 370 8 522
-31 81 -21 241 -91 295 -129 l30 -21 31 67 30 68 -23 17 c-41 32 -182 96 -266
123 -160 50 -401 73 -594 56z"/>
<path d="M12812 4248 l3 -2013 88 -3 87 -3 0 2016 0 2015 -90 0 -90 0 2 -2012z"/>
</g>
</svg>
