<?xml version="1.0" standalone="no"?>
<!DOCTYPE svg PUBLIC "-//W3C//DTD SVG 20010904//EN"
 "http://www.w3.org/TR/2001/REC-SVG-20010904/DTD/svg10.dtd">
<svg version="1.0" xmlns="http://www.w3.org/2000/svg"
 width="1200.000000pt" height="480.000000pt" viewBox="0 0 1200.000000 480.000000"
 preserveAspectRatio="xMidYMid meet">
<metadata>
Created by potrace 1.13, written by Peter Selinger 2001-2015
</metadata>
<g transform="translate(0.000000,480.000000) scale(0.100000,-0.100000)"
fill="#000000" stroke="none">
<path d="M0 2400 l0 -2400 6000 0 6000 0 0 2400 0 2400 -6000 0 -6000 0 0
-2400z m555 1453 c164 -516 471 -1478 682 -2138 211 -660 398 -1246 415 -1302
17 -57 34 -103 37 -103 4 0 60 156 125 348 129 376 381 1096 689 1967 106 303
321 913 477 1358 l283 807 89 0 c88 0 89 0 82 -22 -3 -13 -379 -1069 -834
-2348 l-828 -2325 -88 -3 -89 -2 -755 2336 c-415 1284 -756 2342 -758 2350 -3
11 14 14 85 14 l89 0 299 -937z m8779 703 c52 -22 81 -70 81 -137 0 -93 -56
-149 -150 -149 -91 0 -155 62 -155 151 0 110 116 180 224 135z m-4074 -1052
c439 -83 806 -374 995 -789 112 -244 168 -498 181 -815 14 -341 -37 -676 -142
-934 -196 -479 -517 -777 -968 -896 -143 -37 -239 -50 -383 -50 -384 0 -714
137 -967 401 -336 350 -500 872 -466 1485 15 265 57 463 141 674 86 216 183
370 328 522 223 234 518 381 844 418 102 12 336 4 437 -16z m3178 20 l52 -7 0
-74 0 -73 -92 6 c-163 11 -302 -38 -456 -161 -181 -146 -308 -347 -407 -647
-80 -246 -78 -205 -82 -1410 l-4 -1068 -75 0 -74 0 0 1243 c-1 1127 -4 1379
-26 1950 l-7 177 70 0 71 0 6 -122 c3 -68 8 -202 11 -298 3 -96 8 -217 11
-269 l6 -94 37 90 c79 191 187 358 315 488 206 209 416 296 644 269z m3026
-19 c146 -30 346 -118 346 -151 0 -10 -38 -104 -46 -113 -1 -1 -29 13 -61 33
-144 88 -279 121 -503 120 -197 0 -296 -20 -424 -86 -149 -78 -261 -224 -302
-394 -21 -86 -24 -287 -5 -364 27 -111 78 -199 165 -285 108 -107 240 -192
519 -337 381 -197 457 -247 577 -375 85 -91 158 -232 187 -358 23 -105 24
-357 0 -461 -87 -385 -369 -633 -787 -695 -51 -7 -149 -10 -263 -6 -162 4
-195 8 -301 35 -120 32 -275 99 -331 145 l-29 25 24 52 c13 28 28 54 32 56 5
3 34 -11 65 -32 74 -49 173 -90 289 -120 464 -117 884 26 1072 366 102 184
122 486 47 687 -83 219 -238 346 -705 575 -359 176 -564 339 -655 518 -51 101
-67 177 -72 335 -6 188 14 302 77 431 70 144 213 276 368 339 85 35 195 63
283 74 103 14 338 6 433 -14z m-2124 -1730 l0 -1685 -75 0 -75 0 0 1685 0
1685 75 0 75 0 0 -1685z"/>
<path d="M4860 3394 c-181 -26 -284 -56 -412 -119 -494 -244 -778 -799 -778
-1518 0 -255 28 -449 96 -654 202 -619 665 -971 1247 -950 226 8 410 66 603
191 107 70 287 248 357 353 205 310 298 650 299 1093 1 207 -11 331 -48 499
-71 321 -204 574 -404 771 -193 190 -408 296 -670 330 -72 9 -237 11 -290 4z"/>
</g>
</svg>
