<?xml version="1.0" standalone="no"?>
<!DOCTYPE svg PUBLIC "-//W3C//DTD SVG 20010904//EN"
 "http://www.w3.org/TR/2001/REC-SVG-20010904/DTD/svg10.dtd">
<svg version="1.0" xmlns="http://www.w3.org/2000/svg"
 width="1510.000000pt" height="480.000000pt" viewBox="0 0 1510.000000 480.000000"
 preserveAspectRatio="xMidYMid meet">
<metadata>
Created by potrace 1.13, written by Peter Selinger 2001-2015
</metadata>
<g transform="translate(0.000000,480.000000) scale(0.100000,-0.100000)"
fill="#000000" stroke="none">
<path d="M70 4556 c0 -3 333 -611 740 -1352 l740 -1347 0 -803 0 -804 105 0
105 0 0 796 0 797 734 1336 c403 735 739 1346 745 1359 l12 22 -98 0 -98 0
-385 -723 c-534 -1003 -966 -1767 -998 -1767 -19 0 -21 5 -272 460 -92 168
-201 361 -242 430 -41 69 -256 457 -478 863 l-405 737 -102 0 c-57 0 -103 -2
-103 -4z"/>
<path d="M5487 4553 c-7 -10 -1537 -4290 -1537 -4298 0 -3 46 -5 103 -5 l103
0 270 768 270 767 879 2 880 3 266 -768 266 -767 112 -3 c104 -2 112 -1 107
15 -3 10 -350 979 -770 2153 l-763 2135 -91 3 c-50 1 -93 -1 -95 -5z m169
-430 c87 -290 162 -512 464 -1379 143 -411 260 -753 260 -760 0 -12 -127 -14
-805 -14 -586 0 -805 3 -805 11 0 6 75 221 166 478 315 886 503 1442 604 1791
25 86 28 92 42 88 5 -2 39 -99 74 -215z"/>
<path d="M8340 2406 l0 -2156 105 0 105 0 0 1020 0 1020 480 0 481 0 29 -47
c17 -27 290 -484 608 -1018 l578 -970 126 -3 127 -3 -613 1023 -612 1023 35 7
c20 4 88 16 151 28 338 62 610 217 777 444 87 118 150 276 178 446 17 108 20
330 5 435 -63 440 -329 724 -787 839 -230 58 -248 59 -1040 63 l-733 4 0
-2155z m1300 1964 c499 -34 809 -180 947 -446 50 -95 69 -159 88 -284 37 -242
-1 -511 -97 -692 -140 -263 -456 -427 -903 -468 -60 -5 -338 -10 -617 -10
l-508 0 0 955 0 955 473 0 c259 0 537 -5 617 -10z"/>
<path d="M13317 4553 c-7 -10 -1537 -4290 -1537 -4298 0 -3 46 -5 103 -5 l103
0 270 768 270 767 879 2 880 3 266 -768 266 -767 112 -3 c104 -2 112 -1 107
15 -3 10 -350 979 -770 2153 l-763 2135 -91 3 c-50 1 -93 -1 -95 -5z m169
-430 c87 -290 162 -512 464 -1379 143 -411 260 -753 260 -760 0 -12 -127 -14
-805 -14 -586 0 -805 3 -805 11 0 6 75 221 166 478 315 886 503 1442 604 1791
25 86 28 92 42 88 5 -2 39 -99 74 -215z"/>
</g>
</svg>
